<?xml version="1.0" encoding="UTF-8"?>
<svg id="Layer_1" data-name="Layer 1" xmlns="http://www.w3.org/2000/svg" viewBox="0 0 400 207.11">
  <g>
    <polygon points="386.89 151.24 377.98 169.75 377.98 181.61 372.23 181.61 372.23 169.75 363.32 151.09 369.36 151.09 375.18 163.93 380.87 151.11 386.89 151.09 386.89 151.24"/>
    <path d="M207.46,10.71c.8-.1,3.27,2.16,3.97,2.76,1.21,1.06,2.85,2.48,3.93,3.62.2.21.36.45.52.69v177.58c-1.01,1.54-1.85.88-2.87-.16-2.36-2.41-4.23-5.75-6.61-8.21l-.08-175.31c.1-.41.72-.94,1.13-.99Z"/>
    <g>
      <polygon points="368 62.37 368 70.98 383.04 70.98 383.27 71.21 383.27 77.71 383.04 77.94 368 77.94 368 86.25 385.91 86.25 386.14 86.47 386.14 92.97 385.91 93.2 360.97 93.2 360.75 92.97 360.75 55.42 385.91 55.42 386.14 55.64 386.14 62.14 385.91 62.37 368 62.37"/>
      <path d="M253.74,58.91l-2.87,6.03c-.17.12-3.13-1.61-3.67-1.84-3.03-1.26-7.82-1.91-10.73-.1-2.36,1.47-2.23,4.88.15,6.29,5.37,3.18,15.38.91,17.47,9.43,3.7,15.05-14.59,17.53-24.69,12.45-.5-.25-3.21-1.89-3.4-2.2-.18-.28,2.81-5.2,3.2-5.88,1.91,1.28,3.71,2.31,5.96,2.94,3.63,1.01,12.88,1.6,12.22-4.37-.42-3.79-7.36-3.88-10.29-4.52-4.93-1.09-8.93-3.18-9.35-8.79-.74-10.05,6.21-13.79,15.35-13.24,3.8.23,7.45,1.84,10.64,3.8Z"/>
      <path d="M268.86,78.54v14.43l-.23.23h-6.8l-.23-.23v-37.33l.52-.23c6.47.7,16.03-1.64,21.68,1.91,6.12,3.85,6.51,14.13.99,18.65-1.45,1.19-4.63,2.57-6.5,2.57h-9.45ZM268.86,71.74h8.24c4.14,0,5.48-5.82,2.78-8.38-.3-.28-1.54-.99-1.88-.99h-9.14v9.37Z"/>
      <path d="M323.27,93.2h-7.48l-2.18-5.95-13.67-.07c-.22.07-.24.26-.33.43-.74,1.41-1.04,3.77-1.77,5.18-.09.17-.2.3-.34.41h-7.25l14.35-37.79c1.25.13,2.72-.14,3.94,0,.22.02.4.01.51.25l14.22,37.54ZM311.18,80.2l-4.38-12.54-4.53,12.54h8.92Z"/>
      <path d="M353.49,68.11h-7.18c-.78-2.27-1.74-4.61-4.16-5.51-4.4-1.65-8.03,1.26-8.32,5.73-.22,3.39-.28,9.05,0,12.4.56,6.41,8.69,7.81,11.51,2.3.41-.8.53-1.73.96-2.52h7.18c-.73,6.44-5.16,12.5-12.01,13-8.32.62-14.5-3.72-15.05-12.32-.25-3.95-.24-9.66,0-13.62.53-8.81,6.68-13.1,15.2-12.47,6.75.5,11.24,6.63,11.86,13Z"/>
    </g>
    <path d="M261.87,150.83c6.81-.64,12.33,2.89,12.87,10.01.24,3.13.32,10.44-.43,13.32-2.77,10.54-19.05,10.38-21.53-.27-.72-3.1-.72-11.83-.03-14.94,1-4.51,4.47-7.68,9.11-8.11ZM262.62,156.56c-2.45.34-4.01,2.32-4.2,4.72-.21,2.62-.25,7.7,0,10.28.61,6.13,9.76,6.07,10.28,0,.23-2.63.25-7.98,0-10.58-.31-3.17-3.06-4.84-6.08-4.42Z"/>
    <polygon points="338.38 151.09 338.38 156.45 338.15 156.68 323.72 156.68 323.72 163.63 336.11 163.63 336.11 169.22 323.72 169.22 323.72 176.02 338.38 176.02 338.38 181.61 317.98 181.61 317.98 151.09 338.38 151.09"/>
    <path d="M245.73,158.79c-3.11-1.87-6.6-3.23-10.28-2.19-3.74,1.06-3.66,4.95,0,6.2,5.11,1.74,12.05,1.03,13.13,8.03,2.01,12.95-15.68,13.34-22.93,7.44-.24-.42,2.3-4.01,2.4-4.81.27-.19,1.77,1.02,2.16,1.23,2.85,1.54,7.97,2.44,10.91.88,1.53-.81,2.17-2.34,1.62-4.04-.73-2.23-6.45-2.5-8.5-2.99-4.16-.98-6.92-2.81-7.25-7.41-.85-11.77,13.77-12.6,20.99-7.23l-2.26,4.89Z"/>
    <path d="M295.31,171.34h6.05c-1.13,6.46-5.2,11.07-12.16,10.58-6.02-.43-9.53-4.43-9.91-10.34-.22-3.46-.32-10.31.54-13.53,2.46-9.24,15.82-9.87,20.05-1.46.45.9,1.42,3.54,1.42,4.48,0,.18-.02.2-.17.31h-5.59c-.83-1.76-1.45-3.79-3.47-4.54-3.53-1.31-6.46,1.04-6.74,4.61-.2,2.61-.23,7.39,0,9.98.6,6.52,9.21,6.1,9.97-.07Z"/>
    <polygon points="354.4 156.68 354.4 181.39 354.17 181.61 348.51 181.61 348.51 156.68 340.42 156.68 340.19 156.45 340.19 151.09 362.49 151.09 362.71 151.31 362.71 156.45 362.49 156.68 354.4 156.68"/>
    <rect x="305.73" y="151.09" width="5.89" height="30.53"/>
    <g>
      <polygon points="372.46 25.34 380.85 42.27 380.85 25.34 385 25.34 385.23 25.57 385.23 48.92 379.71 48.92 371.33 32.14 371.33 48.92 367.09 48.92 367.09 25.34 372.46 25.34"/>
      <path d="M301.77,25.23c4.06-.49,8.16.77,9.73,4.84.98,2.53,1,9.37.56,12.1-1.54,9.65-16.45,9.67-17.21-1.35-.4-5.75-.66-14.69,6.92-15.6ZM302.83,29.61c-2,.27-3.14,1.87-3.29,3.81-.13,1.67-.2,7.45.28,8.8,1.21,3.4,6.4,3.34,7.48-.14.46-1.49.41-6.93.25-8.66-.23-2.6-2.08-4.18-4.72-3.82Z"/>
      <polygon points="268.25 25.34 268.25 34.94 268.48 35.16 276.57 35.16 276.57 25.57 276.79 25.34 281.1 25.34 281.1 48.92 276.57 48.92 276.57 39.4 268.25 39.4 268.25 48.92 263.72 48.92 263.72 25.34 268.25 25.34"/>
      <polygon points="231.22 29.72 231.22 35.01 240.75 35.01 240.75 39.4 231.22 39.4 231.22 44.69 242.56 44.69 242.56 48.92 226.69 48.92 226.69 25.34 242.33 25.34 242.56 25.57 242.56 29.5 242.33 29.72 231.22 29.72"/>
      <path d="M321,39.85v9.07h-4.53v-23.58h10.5c1.29,0,3.64,1.17,4.54,2.11,3.98,4.17,1.34,12.4-4.69,12.4h-5.82ZM326.82,29.72c-1.67-.28-4.06.21-5.82,0v5.74h5.67c.15,0,1.07-.51,1.23-.66,1.43-1.31.97-4.74-1.08-5.09Z"/>
      <path d="M343.37,48.92l9.14-23.59,2.79.02,8.93,23.56h-4.84c-.33-.59-1.01-3.6-1.46-3.75l-8.42-.03-1.3,3.79h-4.84ZM356.52,40.91l-2.87-7.86-2.57,7.86h5.44Z"/>
      <polygon points="254.8 29.72 254.8 48.92 250.27 48.92 250.27 29.72 244.15 29.72 243.92 29.5 243.92 25.34 261.07 25.34 261.3 25.57 261.3 29.5 261.07 29.72 254.8 29.72"/>
      <rect x="285.94" y="25.34" width="4.69" height="23.58"/>
      <rect x="336.41" y="25.34" width="4.69" height="23.58"/>
    </g>
    <g>
      <polygon points="319.26 108.16 329.61 129.17 329.61 108.39 329.84 108.16 334.83 108.16 335.05 108.39 335.05 137.33 328.1 137.33 317.98 116.63 317.98 137.33 312.54 137.33 312.54 108.39 312.76 108.16 319.26 108.16"/>
      <polygon points="307.7 108.16 307.7 113.45 293.64 113.45 293.64 120.25 305.43 120.25 305.43 125.54 293.64 125.54 293.64 132.04 307.7 132.04 307.7 137.33 288.05 137.33 288.05 108.16 307.7 108.16"/>
      <polygon points="385.99 108.16 385.99 113.45 371.93 113.45 371.93 120.25 383.72 120.25 383.72 125.54 371.93 125.54 371.93 132.04 385.99 132.04 385.99 137.33 366.34 137.33 366.34 108.16 385.99 108.16"/>
      <path d="M244.82,115.57c-1.48-.73-2.78-1.58-4.41-2.01-2.73-.72-8.38-.81-7.98,3.3.3,3.06,6.55,3.32,8.96,4.04,3.31.99,5.62,2.61,6.15,6.25.73,5.04-1.78,8.81-6.69,10.05-5.13,1.29-11.12.08-15.36-3.05l2.64-4.68c2.85,2.49,8.32,3.78,11.86,2.34,1.67-.68,2.6-2.29,1.93-4.05-.83-2.19-6.09-2.39-8.16-2.87-3.97-.93-6.6-2.78-6.92-7.13-.81-11.16,13.37-12.08,20.08-6.77l-2.1,4.58Z"/>
      <path d="M272.18,117.99h-5.74c-.56-2.85-2.29-4.79-5.37-4.54-1.92.15-3.36,1.37-3.9,3.21-.5,1.71-.44,9.07-.24,11.06.65,6.19,8.93,5.7,9.5-.21h5.74c-.98,6.65-5.19,10.74-12.15,10.11-5.32-.49-8.51-4.38-8.87-9.57-.2-2.94-.18-7.34,0-10.29.28-4.59,2.61-8.41,7.26-9.51,7.39-1.75,12.74,2.47,13.75,9.75Z"/>
      <path d="M361.81,117.99h-5.74c-.33-2.07-1.93-4.34-4.15-4.54-2.91-.26-5.09,1.37-5.37,4.31-.25,2.54-.19,7.25,0,9.83.46,6.3,8.89,5.9,9.53-.08h5.74c-.69,4.96-3.93,9.71-9.29,10.13-6.55.51-11.3-2.86-11.73-9.6-.19-3.05-.22-7.71,0-10.74.35-4.82,3.29-8.47,8.13-9.25,7.18-1.15,11.81,3.06,12.88,9.93Z"/>
      <rect x="276.41" y="108.16" width="5.74" height="29.17"/>
    </g>
  </g>
  <g>
    <path d="M110.62,9.32c.16.25.57.15.83.15,15.93.16,33.39,6.13,46.71,14.65,44.76,28.63,57.15,88.9,26.8,132.9-16.74,24.26-45.25,40.23-75.01,40.6-.26,0-.67-.1-.83.15h-3.32c-.16-.25-.57-.15-.83-.15-48.2-.51-87.94-39.7-91.51-87.28-.09-1.2.04-2.52-.3-3.7.07-2.11-.1-4.24,0-6.35C15.42,50.71,54.42,11.11,104.27,9.32h6.35ZM200.36,103.51c0-51.32-41.61-92.93-92.93-92.93S14.5,52.18,14.5,103.51s41.61,92.93,92.93,92.93,92.93-41.61,92.93-92.93Z"/>
    <path d="M52.43,41.51c-.81.67-1.57,1.7-2.71.98-.86-.54-1.21-1.58-1.05-2.55.06-.39.36-.65.42-.95.2-1.01-1.64-1.5-1.64-1.62,1.25-1.91,1.72-1.43,2.81.24.86-.36,1.66-.77,2.56-.21l2.09-2.21c.56.45.92,1.16,1.76,1.05-.09,1.49-1.6,1.7-2.62.77-.16.03-.59.57-.64.74-.06.19.5,2.26.54,2.8s-.03,1.06,0,1.58c.62-.43,1.33-1.45,2.18-1.36s1.84,1.57,2.55,1.86c.36.15.94-.26.86.18-.03.15-.64.94-.77,1.05-1.38,1.14-2.9-2.83-4.53-1.21-.41.41-.39,2.26-.26,2.85.06.25.23.48.43.64.4.3.97-.12.9.3-.04.25-.96,1.19-1.17,1.26-.5.15-.92-.18-1.17-.58-.18-.28-.54-1.6-.54-1.88v-3.7ZM50.88,38.36c-1.72.31-1,3.32.68,2.97s.6-3.21-.68-2.97Z"/>
    <path d="M38.98,68.87c-.09.65-.43,1.31-1.02,1.63-.24.13-.69.11-.81.28-.3.42-.52,2.54-1.04,2.85-.85.52-4.1-1.26-5.26-.72-.32.15-.8,1.13-.75,1.45.08.49,2.78,3.15,3.37,3.14.3,0,.75-.5.83-.09.03.16-.31,1.22-.42,1.39-.25.42-.53.41-1.01.34-1.49-.23-4.54-4.55-5.07-6.04l-.83,1.46c-.37.04-1.81-.84-2.34-.95-.35-.07-1.01.14-1.06-.15s.34-1.62.71-1.71l3.07,1.04.3-1.81c.35-.07.24.05.34.2.29.45,1.18,2.34,1.55,2.52.36.07.18-.16.23-.37.15-.71.11-2.19,1.01-2.32,1.16-.16,4.43,1.29,5.24,1.01.24-.23.6-1.16.63-1.48.02-.23-.32-.48-.38-.85-.08-.48.01-.97.15-1.43.48-.12.61.34.92.52.61.35,1.01.21,1.65.09Z"/>
    <path d="M136.01,25.64c-.63,1.98.06,5.52,2.78,5.13,1.47-.21.99-1.98,1.29-2.19l1.82.39c-.16,2.08-1.84,2.9-3.79,2.5-1.73-.35-2.98-2.6-4.96-2.33-.33,1.23-1.52,2.17-2.74,1.41.46-.72,1.08-1.22.91-2.19l3.02.3c-.61-2.33.49-6.52,3.07-7.29,2.03-.6,5.29.61,4.1,3.19-.96,2.07-3.74,1.61-5.5,1.07ZM136.31,25.19c1.33.35,2.94.2,3.6-1.16.52-1.07.25-2.13-1.11-2.02-1.15.09-2.42,2.07-2.5,3.18Z"/>
    <path d="M185.83,64.24c1,1,1.77,3.13.31,4.06-2.17,1.39-4.3-.65-5.32-2.44-1.57,1.06-3.02,2.91-1.98,4.83.66,1.23,1.57,1.36,2.65.51.22-.17.3-.63.53-.52l1.13,1.59c-1.54,1.21-3.25,1.05-4.44-.54s-.77-3.66-2.2-5.06l-.2-.04c-1.22,1-2.24.59-3.13-.55,1.02-.18,1.55-.45,2.32-1.12.38.21,1.93,2.15,2.21,1.95,1.24-2.62,5.68-5.1,8.11-2.67ZM185.54,64.98c-.81-.81-3.1-.16-4,.37-.55.33.63,1.32.97,1.52,1.85,1.15,4.36-.57,3.03-1.9Z"/>
    <path d="M157.02,43.93c-.15.16-1.98-.74-1.95-1.1.21-.48.48-.92.77-1.36.81-1.24,3.3-3.59,3.63-4.68.45-1.45-1.01-2.22-2.3-1.69-1.1.45-4.12,3.83-4.09,4.98,0,.28.19.55.16.84-.2.19-2.16-.66-2.08-1.26.2-1.46,3.8-5.75,5.65-5.68l1.8.14c.02-2.46.43-3.09,2.49-1.44-.19.27-.68.23-.83.53-.09.18-.24,1.93-.15,2.12.13.29.62.53.76,1.06.49,1.84-1.21,2.92-2.19,4.16-.73.93-2.06,2.18-1.67,3.4Z"/>
    <path d="M110.47,13.86c.05.45-.37.6-.28,1.09.03.18.75,1.4.87,1.52.39.37,1.37.14,1.97,1.09.88,1.38-.2,5.24.15,7.1.1.53.74.47.6.76-.28.31-1.96.54-2.13.29-.18-.75-.3-1.49-.29-2.26.02-1.36.81-4.97-.14-5.9s-2.21-.03-2.65.99c-.47,1.08-.85,5.1-.3,6.04.19.32.73.32.67.76-.51.09-2.02.58-2.34.16-.55-2.76-.78-8.02,2.8-8.77-1.2-1.92-1.91-2.78,1.06-2.87Z"/>
    <path d="M58.93,174.51l4-5.25.96.59-.06.43-5.13,7.1c-1.76-.7-1.01-1.84-.98-3.23.04-1.79-.04-3.58,0-5.37l-3.77,5.07-1.2-.76,5.36-7.3.99.8-.15,7.94Z"/>
    <path d="M148.09,182.06l-1.2.4-6.8-3.87,2.71,5.82-1.34.68-3.78-8.31,1.25-.43,6.91,3.9c-.32-.74-2.92-5.74-2.71-6.03l1.11-.45,3.86,8.29Z"/>
    <path d="M88.35,19.8c.98.99,1.16,4.75,1.94,6.3.35.69.78.42.98,1.05l-1.77.73c-.56,0-1.02-1.88-1.18-2.39-.37-1.2-.78-4.23-1.51-4.99-1.13-1.19-2.5.11-2.63,1.46-.11,1.11.73,5.13,1.57,5.81.25.2.96.26.83.52-.1.21-1.78,1-2.02.96-.59-.11-1.56-3.53-1.69-4.2-.29-1.5-.44-2.9.47-4.23l.97-.99c-.45-.59-1.76-1.04-1.48-1.94.16-.54,2.1-1.19,1.86-.57-.08.2-.34.21-.16.61.07.16,1.27,1.21,1.45,1.28.75.3,1.56-.22,2.36.59Z"/>
    <path d="M102.61,15.52c-.02.8-.1,1.65.6,2.19-.83,1.15-2.55.02-2.42-1.29-.51.24-2,.07-2.12.68l-.15,5.37c.16.17,2.75-1.18,3.46.09.59,1.05.08,2.53-1.04,3.01-.32.13-2.57.63-2.96.67-.26.02-.58.08-.82-.06-.65-.39-.16-3.46-.14-4.23.03-1.59-.03-3.18,0-4.77l-2.26.31c.22,1.46-.65,2.29-2.05,2.41-.06-.45.22-.81.24-1.29s-.11-.84-.16-1.29l9.82-1.81ZM98.72,25.15c1.46.78,2.64-1.27,1.48-2.31-.43-.21-1.18.01-1.6.22-.16.23-.11,1.86.12,2.09Z"/>
    <path d="M186.93,74.47l1.67,3.55c.12.07,2.3-.37,2.53-.5.5-.28.13-.75.72-.65,1.97,2.63-.55,2.16-2.49,2.57l1.36,3.47c-.84.15-1.5.56-2.04,1.21-.47-.69-.75-1.28-.23-2.04.24-.35.9-.57.91-.9l-.63-1.42-6.17,1.19c-.12.14.44,1.68.59,1.86.16.19.72.17,1.08.47.14.11.8,1.1.75,1.14-1.11-.11-1.78.37-2.42,1.21-.17-.68-.67-1.2-.34-1.93.1-.23.51-.46.47-.69-.01-.08-.64-1.08-.76-1.36-.4-.92-1.04-1.72.14-2.18,1.7-.66,4.13-.8,5.93-1.25l-.78-1.79c-.35-.22-1.44.59-2.37-.57-.12-.15-.77-1.19-.28-1.09,1.16.23,1.31-.03,2.36-.32Z"/>
    <path d="M40.19,55.57c-.1,1.38-1.47,1.65-2.57,1.12l-.86,1.53c0,.1.57.62.71.76.54.51,3.34,2.97,3.79,3.18s.77-.28,1.05.15c-.6.97-.44,2.19-1.86,1.26-1.19-.78-2.5-2.22-3.66-3.14-.16-.13-.85-.7-.98-.61l-.75,1.72c1.22.7,1.44,2.24.29,3.11-.16-.8-.9-1.39-1.67-1.59l1.75-3.85-2.12-1.66c-1.21.24-1.07,1.59-1.82,2.26l-.83-.98-1.05.07c.03-1.3,1.91-2.76,2.49-1.06l1.23-1.97c.79-.4,2.74,2.22,3.07,1.97l1.52-3.17h.22c.51.6,1.28.83,2.04.91Z"/>
    <path d="M47.9,45.59c-.35,1.35-1.62,1.66-2.67.77-.22-.04-.98.98-1.05,1.19-.1.32.12.81.08,1.27s-.83,2.41-.74,2.51c1.42-.12,3.18,2.23,4.18,2.37.28.04.57-.29.81.12l-1.06,1.52c-1.52-.34-2.35-1.69-3.87-2.33-1.58-.66-2.87-.44-3.96-2.09-1.82-2.75,1.81-7.27,4.28-3.98l1.96-2.56c.57.58,1.13,1.26,2.04,1.21ZM42.41,47.76c-.64-.59-1.85-.85-2.25.14-.61,1.52,1.3,2.98,2.66,3.13.67-.92.4-2.51-.41-3.26Z"/>
    <path d="M171.34,151.27c.41-.07.88-.07,1.29,0,1.03.18,4.09,2.54,4.52,3.49,1.16,2.57-1.3,5.66-4.08,4.99-1.08-.26-3.95-2.6-4.39-3.62-.82-1.89.68-4.52,2.66-4.86ZM171.49,152.63c-1.23.24-2.03,1.91-1.45,3.05.16.32,2.66,2.35,3.05,2.55,1.76.86,3.72-1.24,2.65-2.95-.33-.52-2.97-2.54-3.56-2.64-.25-.04-.43-.05-.68,0Z"/>
    <path d="M37.89,145.08c2.65-.33,4.9,3.12,3.43,5.4-.52.81-3.6,2.89-4.54,3.02-2.93.4-5.24-3-3.6-5.42.58-.85,3.68-2.87,4.72-2.99ZM37.88,146.59c-.43.09-2.81,1.61-3.18,1.95-1.4,1.28-.31,3.61,1.34,3.61.76,0,3.99-2.03,4.22-2.73.53-1.58-.69-3.18-2.38-2.83Z"/>
    <polygon points="33.69 132.65 34.08 134.01 30.68 135.61 32.19 139.29 35.87 137.79 36.4 139.05 28.1 142.77 27.65 141.42 31.1 139.83 29.38 136.13 25.91 137.64 25.39 136.29 33.69 132.65"/>
    <path d="M157.34,171.51c-.19.33,1.28,1.9,1.57,2.24l3.78-3.01.8.98-4.9,3.84c-.23.04-.83-.83-1.02-1.06-1.6-1.98-3.05-4.09-4.6-6.11l5.02-3.85c.21.19.79.77.63,1.05-.44.5-3.78,2.63-3.7,3.07l1.6,1.9,3.17-2.39c.27-.05.84.7.79.95l-3.13,2.38Z"/>
    <path d="M182.11,133.1l-1.97,4.68,2.57.91,1.52-3.78,1.21.46-1.65,3.84,2.4,1.15,1.89-4.39c.18-.22,1.08.26,1.12.4l-2.41,5.8-8.46-3.63,2.57-5.89,1.21.46Z"/>
    <polygon points="136.3 177.55 136.59 178.4 136.46 178.66 131.95 180.33 132.91 182.8 136.92 181.46 137.22 182.67 133.29 183.88 134.05 186.45 138.8 184.93 139.18 186.15 133.23 188.1 130.28 179.59 136.3 177.55"/>
    <polygon points="30.97 124.64 29.77 124.78 28.63 119.95 26.15 120.57 26.89 124.78 25.69 124.93 24.78 120.92 22.2 121.46 23.28 126.2 22.06 126.6 20.69 120.25 29.61 118.29 30.97 124.64"/>
    <polygon points="100.49 183.88 100.41 186.46 104.57 186.75 104.57 187.96 100.36 187.83 100.19 190.38 105.03 190.68 105.03 191.89 98.68 191.59 99.13 182.52 105.57 182.97 105.26 184.15 100.49 183.88"/>
    <path d="M170.17,53.45c-.18.19-1.71-.86-1.67-1.42.11-1.24,4.08-2.78,3.37-4.43-.85-1.97-3.26-.39-4.34.42s-2.91,2.21-2.65,3.62c-.22.23-1.91-1.04-1.79-1.55.22-.9,3.35-3.43,4.26-3.92.98-.52,1.72-.74,2.86-.54.46.08,1.12.61,1.48.51.2-.06,1.1-.88,1.22-1.07.17-.28-.12-.67.36-.68,2.64,1.72-.28,2.1-.51,2.98-.13.5.95,1.23.11,2.67-.72,1.24-2.99,1.72-2.7,3.42Z"/>
    <path d="M180.07,53.15c2.66,2.13-.12,1.93-.61,2.87-.21.4.6,1.33,0,2.4-.69,1.22-3.91,2.57-5.12,3.64-.63.55-.35.56-.57,1.1-.34.82-1.18-.88-1.56-1.1-.19-.41,1.24-1.41,1.55-1.64.96-.73,4.45-2.55,4.7-3.47.44-1.67-1.23-2.06-2.54-1.79-.72.15-2.87,1.34-2.45,2.28l-.33.22c-1.46-1.29-1.84-1.71-.07-2.94s3.56-1.34,5.33.05c.79-.37,1.32-.85,1.69-1.64Z"/>
    <path d="M128.46,19.28c3.89,1.1-.46,6.38.2,8.48.09.28.44.42.39.75l-2.12-.24c-.41-2.17,1.91-5.93,1.49-7.81-.17-.73-1.04-.95-1.69-.86-1.32.19-2.42,2.84-2.17,3.97.08.35.44.5.42.86-2.57.28-2.63-.59-1.92-2.75.41-1.24,1.33-2.34,2.64-2.65.33-.08.71.03,1-.06.57-.18.63-2.02.4-2.54,2.82,0,1.72.9,1.37,2.86Z"/>
    <path d="M62.71,33.95l3.29,2.19c.02.3-1.67,2.09-1.76,2.45-.14.6.64.76-.14,1.97-.99,1.53-.7-.08-1.3-.66l-1-.58c.35-.87,1.52-.75,1.89-.97.18-.11,1.08-1.23.98-1.37-2.89-1.22-7.56-5.13-4.38-8.39,2.73-2.79,5.77.23,3.75,3.6-.2.33-1.44,1.6-1.33,1.76ZM61.46,28.69c-2.08.37-.58,4.13.85,4.66,1.63-.95,1.17-5.02-.85-4.66Z"/>
    <path d="M44.88,165.9l8.58-4.06c.26-.1.94.55,1.02.73.2.45-3.1,8.13-3.48,9.22l-.96-1.01.69-1.94-2.78-2.62-1.93.83c-.29,0-1.28-.95-1.13-1.15ZM51.37,167.41l1.36-3.78-3.62,1.89c.26.25,2,2.13,2.26,1.89Z"/>
    <path d="M87.01,180.13l1.24,9.79-1.48-.33-.33-2.16c-.14-.11-3.18-.94-3.45-.95-.2,0-.24-.02-.42.11-.92.7-.56,2.03-2.49,1.22l.18-.5,5.4-7.14c.36-.41.89-.08,1.34-.04ZM86.44,186c-.27-1.03-.21-2.16-.32-3.23-.02-.17-.07-.83-.28-.85l-2.27,3.47,2.87.6Z"/>
    <path d="M72.86,177.06c-.31-1.55-4.14-3.1-4.12-.81,0,1.04,1.97,1.97,2.66,2.79.83.99.95,1.96.2,3.08-1.31,1.94-4.44.61-5.8-.65-.23-.21-1.09-1.24-1.11-1.46-.03-.36.83-.52,1.1-.64.41.45.6.93,1.08,1.34.77.66,3.06,1.79,3.62.45.61-1.44-1.42-2.21-2.27-3.02-1.06-1.01-1.38-1.95-.55-3.28,1.53-2.49,5.52-.37,6.52,1.69l-1.34.51Z"/>
    <path d="M166.99,157.14l.14,1.19c-1.57-.11-4.42,3.24-2.11,3.88,1.49.41,3.92-3.71,6.2-1.37s-1.51,6.08-4,6.27l-.06-1.35c1.57.23,5.03-3.5,2.56-4.19-1.52-.42-3.95,3.87-6.26,1.28-2.03-2.27,1.12-5.63,3.53-5.72Z"/>
    <path d="M116.64,184.16c-1.11-.32-1.97-.62-3.16-.37-1.35.29-1.77,1.85-.53,2.36,1.65.68,4.67-.17,4.92,2.48.34,3.57-4.86,3.64-7.1,2.34l.7-1.07c1.18.73,4.93,1.08,5.04-.83.13-2.31-5.06-.28-5.67-3.23-.74-3.52,4.12-4.15,6.36-2.73l-.55,1.04Z"/>
    <path d="M40.64,155.77l-2.82,2.1-.95-.97,7.03-5.67c.2,0,.26.12.38.23.56.53,2.7,3.3,2.83,3.97.47,2.29-1.82,4.13-3.93,3.18-.97-.44-1.96-1.96-2.54-2.83ZM43.9,153.08l-2.34,1.99c.98.92,1.8,3.17,3.46,2.13,1.95-1.22-.26-3.02-1.12-4.12Z"/>
    <path d="M72.84,185.09l3.18-8.61c2.35.99,6.98,1.66,5.36,5.29-1.15,2.59-3.98,1.29-5.9.47l-1.27,3.09-1.37-.24ZM76.92,178.14l-1,2.88c1.26.63,4.03,1.98,4.31-.4.2-1.71-2.2-1.89-3.32-2.48Z"/>
    <path d="M76.12,20.54c1.01-.14,1.84.19,2.27,1.14.86,1.9-.48,3.42-1.92,4.51.49.72,1.05,1.37,1.48,2.13.27.47.57,1.62.92,1.95.3.28.66.15.91.44-.42.39-1.4,1.19-1.96.91-.31-.15-1.48-2.85-1.97-3.48-1.03-1.32-2.68-2.03-2.84-3.98-.14-1.7,1.47-3.39,3.1-3.62ZM76.57,21.91c-.5-.56-1.52-.45-1.9.2-.59,1-.06,2.57.75,3.29.45.4.54.52.96.08.82-.88,1.01-2.67.19-3.57Z"/>
    <path d="M26.29,82.92c.62.03,1.25-.05,1.87.02,1.26.15,2.57,1.12,3.64.28.47.09.07,1.79-.22,2.04-.54.32-2.72-.6-3.56-.68-1.96-.18-4.11.81-5.74-.76-1.83-1.77-.81-6.11,2.04-5.37,1.71.44,2.48,2.92,1.96,4.46ZM25.83,83.07c.53-1.78-2.66-4.29-3.61-2.47s2.24,2.87,3.61,2.47Z"/>
    <path d="M146.99,26.95c.34-.43.59-.89.51-1.46,3.13.57,7.7,2.28,3.18,5.37.48.52,2.01.64,1.58,1.58-.35.75-4.17,2.73-4.92,3.55-.54.29.66,1.06.08,1.14-.52.07-2.28-.86-2.01-1.71.21-.67,4.96-3.04,4.97-3.81,0-.64-1.79-.88-1.67-1.36.03-.12.79-.52.98-.69,1.44-1.25,2.01-2.12-.18-3l-.2.05c-.34.91-1.8,1.62-2.57.91-.41-.38.1-.39.25-.58Z"/>
    <path d="M153.09,171.64c-.42-.03-.85.55-1.16.58-.21.02-.51-.36-.89-.42-1.46-.25-2.62.68-2.49,2.18.06.66,1.65,3.3,2.19,3.71,1.13.84,2.84.25,3.18-1.05.25-.98-.14-1.5,1.28-1.82,1.12,3.56-3.53,6.41-6.02,3.37-.54-.66-2.03-3.14-2.13-3.92-.32-2.54,2.25-4.36,4.64-3.74.26.07,1.63.77,1.39,1.1Z"/>
    <path d="M125.73,183.43l-1.41.29c-.83-1.58-3.52-1.36-3.84.43-.13.72.28,2.89.52,3.64.76,2.37,3.41,1.83,4.07-.29l1.26-.29c.17,3.67-5.4,4.81-6.65,1.29-.25-.7-.72-2.95-.74-3.66-.1-3.86,5.31-4.88,6.79-1.41Z"/>
    <path d="M177.54,145.61c-.39.22-1.27-.23-2.09.55-.72.68-.8,1.73-.27,2.55.31.48,2.88,2.15,3.45,2.3,1.49.39,2.85-.92,2.54-2.39-.08-.35-.48-.66-.39-1.05.06-.29.57-1.21.95-.86,2.06,1.91.03,6.08-2.84,5.88-.91-.06-3.7-1.76-4.4-2.41-2.68-2.48.45-7.21,3.7-5.67l-.63,1.1Z"/>
    <path d="M97.32,184.94l-1.37-.22c-.38-2.01-3.27-2.55-3.97-.51-.24.7-.66,3.27-.52,3.94.37,1.78,3.1,1.98,3.76.28l1.49.36c-1.22,3-6.11,2.71-6.73-.52-.19-1.02.42-4.46,1.01-5.35,1.71-2.57,6.39-1.15,6.32,2.01Z"/>
    <path d="M193.29,123.13l-.4,1.37-3.74-.76-5.69,1.66c.01-.39.14-1.37.46-1.58.37-.25,4.24-.9,4.22-1.21l-3.25-2.8c-.19-.24.1-1.66.3-1.66l4.47,4.14,3.62.84Z"/>
    <path d="M32.04,132.04l-.76-2.56-7.47,2.42-.38-1.27,7.39-2.52-.91-2.72,1.12-.29,2.2,6.42c0,.44-.85.54-1.2.51Z"/>
    <path d="M184.52,125.85c.22.3-1.03,2.22-.68,2.72l7.18,2.43-.3,1.34-7.46-2.42-.84,2.57-1.2-.31,2.12-6.63,1.19.31Z"/>
    <rect x="41.86" y="160.32" width="9.22" height="1.53" transform="translate(-97.77 75.63) rotate(-43.26)"/>
    <rect x="29.32" y="142.98" width="9.16" height="1.5" transform="translate(-64.54 33.65) rotate(-28.54)"/>
    <rect x="180.26" y="138.57" width="1.52" height="9.18" transform="translate(-30.22 236.11) rotate(-62.09)"/>
    <rect x="127.74" y="180.06" width="1.57" height="9.15" transform="translate(-42.68 38.7) rotate(-14.71)"/>
    <path d="M194.04,96.98l-1.77.57c-1.09.57-1.13,1.72-1.48,2.75-.19-2.05-1.08-2.95-3.1-3.25,1.99-.43,2.82-1.19,3.1-3.25.45,1.92,1.12,3.02,3.25,3.18Z"/>
    <path d="M25.08,93.96c.07.97.41,1.92,1.22,2.48l1.8.69c-1.06.1-2.13.33-2.65,1.35-.29.57-.2,1.3-.67,1.67.02-.79-.28-1.58-.76-2.19l-2.27-.98c2.31-.38,2.41-.77,3.02-2.8.07-.22-.09-.27.3-.22Z"/>
    <g>
      <g>
        <path d="M180,103.51c0,40.08-32.49,72.57-72.57,72.57s-72.57-32.49-72.57-72.57S67.35,30.93,107.43,30.93s72.57,32.49,72.57,72.57ZM115.91,68.11c-.13-.06-.7-.35-.75-.3l-28.8,65.13c-.22.86.24,1.64-.62,2.25s-1.21.18-1.94.2c-2.49.09-3.43.71-6.27.05-1.08-.25-2.06-.87-2.97-1.11-.28-.07-.56.05-.35.27.06.06,1.19.6,1.5.85,2.69,2.14,3.67,5.47,3.2,8.81l3.59.94c.18,1.34-.37,3.43.54,4.52,1.27,1.51,4.97-.53,6.5,1.82.25.39.26.87.61,1.21.51.49,1.82.6,2.28,1.19.55.7-.1,1.65,1.07,2.41,1.38.9,3.38.55,4.93.82.85.15,1.44.89,2.3,1l3.64-1.03c.27-1.62.16-3.53.66-5.08.16-.5.64-1.1.73-1.54.33-1.62.15-3.2-.2-4.72-.31-1.33.41-2.27.32-3.27-.05-.56-.75-1.1-.84-1.8-.13-1.04.31-1.83.32-2.73.01-1.17-.28-1.72.13-3.03.17-.54.93-1.58.93-1.96,0-.59-.64-.63-1-.98-1.39-1.35-.5-4.02,1.36-4.09.65-.03.45.23.64.3.34.14.85.45.9.46.21.06.98,0,1.1.17.04.05-.11.31-.07.46.1.36.58.52.54.96-.03.29-.48.55-.56.98-.06.35.11.57.08.82-.03.3-.31.69-.26.9.03.16.3.31.39.51.35.81.9,1.71,1.16,2.46.96,2.75.23,10.5-.64,13.41-.32,1.06-.93,2.1-1.21,3.03-.22.76-.73,4.5-.42,5.02.64.52,1.36.83,2.18.92.23.38-.3.93-.27,1.1.02.11.97,1.04,1.14,1.13,1.08.61,2.29-.21,3.43-.11.51.17.62,2.11,1.99,2.26.5.05.99-.16,1.51-.17,3.11-.05,6.51.4,9.53.16,3.4-.27,1.98-1.84,2.35-4.15.31-1.99,4.51-4.57,5.36-6.58.41.31.56.63.72,1.09.7,1.95.76,7.3,2.72,8.31,2.3,1.18,2.57-1.03,3.52-2.29,1.19-1.59,4.69-2.85,5.02-4.65.1-.53-.09-1.68.11-2.01.1-.16.59-.28.83-.53.41-.41,1.74-2.21,1.81-2.74.09-.73-.66-1.62-.75-2.56-.24-2.36.32-5.08.22-7.48.32-.53,3-.83,3.63-1.66.59-.78,1.15-4.42,1.43-4.61.74-.23,1.72.1,2.43-.14.43-.14.46-.56.75-.76.35-.23.84-.17,1.2-.31,2.06-.78,1.22-1.98,2.02-3.42.58-1.04,3.6-3.37,4.75-3.71,2.6-.77,5.42,1.16,5.92-2.84.05-.37-.02-.76,0-1.13,1.01.03,2.28-.06,2.39-1.32.04-.5-.36-1.12.02-1.64.17-.24.87-.46,1.17-.72.97-.86,1.41-2.52,3.06-2.69,2.54-17.97-1.54-36.22-11.74-51.17-17.05-25-47.92-36.72-77.45-29.17-22.03,5.63-40.94,22.21-48.92,43.54.55.62,1.81,1.12,1.94,2,.06.42-.06.84.08,1.28s.69.7.92,1.2c.44.98.78,2.82,1.06,3.93,1.07,4.28,2.08,8.57,3.18,12.84.14.53-.07,1.05.41,1.42,1.76,1.35,4.67.49,6.54,2.06,2.33,1.96.85,3.69,1.7,5.86.4,1.02,1.29,1.41,1.92,2.16,1.45,1.71,2.13,4.84,1.55,6.99-.43,1.59-2.76,3.11-.95,4.65.25.21.58.29.84.52,1.29,1.18,1.63,4.88,2.74,6.48.71,1.04,2.48,1.58,2.69,2.91s-.2,1.12-.75,1.8c-1.54,1.94-1.04,1.05-2.98,2.01-1.81.89-2.44,4.45-3.4,6.13-.67,1.17-1.65,9.7-2.16,1.77-.89,1.39.5,1.61,1.64,1.49.63-.07,1.94-.5,2.43-.89,1.38-1.08,1.42-4.33,2.79-5.82,1.25-1.36,3.23-.83,4.01-2.94.11-.29.02-.62.15-.91.31-.72,2.37-.84,3.09-.91-.09-.62.17-1.72-.08-2.26-.15-.33-1.51-1.46-1.88-1.9-3.71-4.35-5.25-8.9-4.84-14.65.1-1.41.17-2.33,1.74-2.64l18.96-17.16,1.97-1.58-20.7,18.82c2.65.46,4.71,2.27,6.91,3.66l7.38,1.71c.33.08.18-.32.36-.54.37-.46.79-.06,1.13-.11.37-.06.79-.69,1.58-.28l32.36-48.88-.22-.22-20.63,18.67-.45.15,21-19.04c0-.1-1.06-.97-1.21-1.21-.1-.15-.11-.33-.14-.38.36.36,1.38,1.48,1.81,1.29,1.84-.83-1.6-2.18-.84-3.26.27-.38,1.96.02,2.39.17.13.05.13.23.15.24.5.27.67-.55.82-.94-.56-.77-1.88-1.75-1.55-2.8.09-.29,1.8-2.37,2.05-2.48.38-.17.86-.04,1.28-.09.18-.02.32-.2.46-.22.4-.04.89.2,1.29.22l-1.05-.98,1.14-1.51-.09-.83c-.78-.24-1.6,1.73-2.02,1.65l-8.56-7.02,3.1-3.85,8.47,6.95c.26.48-.85,1.37-1.13,1.76l.37.51c.22-.48.66-.27.91-.43.31-.21.71-1.13,1.08-1.2l.96.43c-.02-.43-.38-.59-.28-1.1.24-1.2,1.74-1.45,2.63-.73l.52-.89c-.13.58.16,1.08.76,1.06l-.45.38c1.18,1.43.35,3.16-1.51,2.64l1.05,1.13c-.81.72-.88,1.24-1.05,2.19.26-.11.51-.03.68-.14.42-.26.78-1.35,1.33-1.2l7.29,6.03v.3s-2.8,3.41-2.8,3.41l-7.49-5.97c-.28-.5.74-1.14.92-1.52.08-.17.02-.6.07-.9-.27.11-.87.27-1.05.39-.24.16-.85,1.23-1,1.27l-1.12-.6c.13.35.5.83.54,1.19.02.24-.17.39-.17.54,0,.4.35.7.21,1.33-.06.28-1.56,2.2-1.79,2.3-1.18.5-2.15-.67-3.17-.37l-.15-.45-.72.98c.4.42,1.69,1.76,1.26,2.35-.94.45-1.87-.09-2.72-.46-.54.84-.72,1.04-.08,1.81ZM113.19,48.16c-.11-.25-.33-.5-.6-.45.11.25.33.5.6.45ZM113.46,48.2l-.16.15.67.68.16-.15-.67-.68ZM114.85,49.52c-.11-.25-.33-.5-.6-.45.11.25.33.5.6.45ZM118.63,52.54c-.11-.25-.33-.5-.6-.45.11.25.33.5.6.45ZM119.38,53.15c-.11-.25-.33-.5-.6-.45.11.25.33.5.6.45ZM119.65,53.19l-.16.15.67.68.16-.15-.67-.68ZM129.06,60.55c-.11-.25-.33-.5-.6-.45.11.25.33.5.6.45ZM129.3,60.6l-.16.19,1.32,1.11.16-.19-1.32-1.11ZM86.28,132.8l28.72-64.99-32.43,48.81c.39,1.2-.26.98-.45,1.36-.15.31,0,.68-.1.96s-.6.27-.58.61c.71,2.29.92,4.9,1.61,7.17.42,1.37,1.44,2.38,2.09,3.65l1.13,2.42ZM67.47,117.84h5.37c.1-.36-.09-.26-.19-.35-1.7-1.52-3.18-1.31-5.25-1.99-.41-1.22.7-.68,1.33-.57.16.03.53.16.49-.11-1.66-.8-6.09-3.88-4.65.34,1.87,5.48,13.26,17.08,18.7,19.08.6.22,1.41.57,1.97.16.6-.66-.72-3.54-1.36-4.16.11.85.81,1.86-.59,1.65-.54-1.96-.47-4.09-2.05-5.58-.43-.22-.07.96-.07,1.13.05,1.4-.03,2.82-.03,4.22-.11.35-.59.24-.89.25l-.18-7-2.61-2.82c-.21,0-2.59,2.86-3.05,3-.62.18-.82-.29-.51-.82.33-.56,2.81-2.54,2.87-2.88l-2.66-2.59c-1.87-.3-4.54.3-6.31-.04-.25-.05-.41-.16-.51-.4-.1-.18.06-.46.2-.5ZM76.46,117.69l-2.72-.6c.47.88,1.32.79,2.19.75.18,0,.56.12.53-.15ZM79.33,118.74h-3.78c.55.64,1.17,1.39,1.89,1.82.32,0,1.6-1.48,1.89-1.82ZM80.09,123.43v-3.93l-1.96,1.89,1.96,2.04ZM81.75,125.39c-.07-.74-.21-1.67-.43-2.36-.06-.2-.05-.46-.32-.51.02,1.1-.28,2.15.75,2.87ZM72.68,133.86c.16-.7-.63-1.06-1.21-1.21l.07.92,1.14.29ZM71.48,134.61v2.34c-.3.63-1.51.28-1.51-.15v-2.27c0-.41-2.27.02-2.26.3,2.59,1.98,2.88,4.72,2.41,7.78l7.49,1.15c.78-.13.43-2.3.33-2.85-.36-1.88-1.3-3.42-2.75-4.65-1.34-1.14-.84-.54-1,.52-.07.43-.2.66-.68.68-1.32.05-.61-1.74-.89-2.57l-1.14-.3Z"/>
    <path d="M136.61,68.26c-.61.54-.62.54-1.36.91.45-.29.91-.61,1.36-.91Z"/>
    <path d="M113.19,65.54c-.12-.12-.34-.19-.46-.37-.1-.15-.1-.31-.14-.38.3.34.34.38.6.76Z"/>
    <path d="M135.25,69.17c-5.04,3.3-11.88,3.34-17.18.48-.69-.37-1.68-.95-2.17-1.54.86.39,1.58,1,2.42,1.44,5.68,2.98,11.35,2.38,16.93-.38Z"/>
    <path d="M139.79,65.24c5.33-7.69,5.31-17.35-1.96-23.81-14.56-12.92-37.01,4.29-25.24,23.35-4.92-5.55-4.6-14.71-.43-20.6,7.78-10.99,24.86-9.2,30.18,3.17,2.43,5.65,1.81,13.34-2.55,17.89Z"/>
    <path d="M136.61,68.26c1.07-.93,2.19-2,3.17-3.02-.91,1.31-1.82,2.13-3.17,3.02Z"/>
  </g>
  <g>
    <path d="M123.92,125.24l.37-.58c.46.13,1.11.27,1.14.88-1.43.6-3.02.54-4.53.3l-1.06,6.95,2.42-.76c-1.91-2.94,3.27-2.94,1.36,0l2.42.61-1.02-6.77.72-.33,4.69,31.28c-.87.11-.53-.72-.62-1.27-1.19-7.26-2.44-14.52-3.61-21.78-.25-.64-2.07-.96-2.73-1.21l-.07-.53-.68.16.15.29-3.17,1.17-3.7,23.17-.53.15v-.75s.45.15.45.15l-.3-.4,4.61-30.29c.11-.5.8-1.17,1.35-1.05.17.04,0,.38.24.31v-1.51c-.49-.14-.4.2-.56.31-.38.24-.8,0-.65-.51.28-.31.72-.28,1.06-.1-.27-1.31,1.22-1.07,1.89-1.66.33-.28.9-1.21.83-1.67l-.17.27-1.87-.53-.6.71-.23-.3-.15.07c-1.55,2.31-2.7,5.12-4.23,7.41-.58.87-1.04.81-1.52,1.35-.65.74-.78,2.5-2.11,2.35l.45.22-.91,1.37c-1.31.41-.56-.9-1.36-1.06-.22-.04-.8.56-.76,0,.03-.46.42-.68.47-1.12.37-.25.86.74,1.05,1.05l.75-.61c-.9-1,.88-2.29,1.02-3.12.05-.31-.26-.93-.1-1.33l11.32-20.11.3.16-11.33,20.32,11.33-19.84c.55-.14.03-.48-.11-.98-.37-1.3.58-2.28,1.17-3.39.05-.1.25-.09.29-.22.08-.3-.04-.76.18-1.08l1.49-.02c-.16-.45-1.35.22-1.21-.45,1.41-.26,3.88,1.15,4.51,2.36.2.38.37.96-.13.73l-.15.23.3.08c-.24.43-.76.48-1.06.75-.94.87-.95,2.96-2.88,2.89l-5.27,9.35.45.3-.46,1.13,1.66.3-.15.6.37-.6,1.13.3v.6c.27.06.1-.23.17-.28.02-.02.45.11.49.13.21.12.06.39.1.46.01.02.25-.12.45-.09.89.17,1.76.5,2.65.7l.19-.04c.82-1.69,2.45-1.29,2.13.7-.28,1.75-2.33,2.1-2.26.08h.75c-1.13-.36-2.75-.49-3.82-.91-.19-.07-.02-.35-.26-.3l-.08.45-.83-.3c-.21.47-.69,1.05-1.05,1.44-.24.26-.61.33-.61.37v2.87ZM125.88,105.59c.32.06.42-.2.58-.4.32-.43.74-1.2,1.02-1.7.14-.24.34-.19-.02-.47l-1.58,2.57ZM130.42,104.84l-.6-.15c.41.53-1.34,2.21-1.06,2.57.22.27.33-.2.39-.28.47-.67.84-1.44,1.27-2.13ZM127.53,107.68l-11.54,20.15.33.19,11.54-20.15-.33-.19ZM131.32,121.61l-.07-.91-.45-.14-.23.3h.61s.15.76.15.76ZM123.31,122.22h-.91v.15h.91v-.15ZM122.29,123.4c-.13-.2,0-.62-.04-.88-.19-.05-.26.3-.27.41-.02.56.19,1.4.18,2.01l1.14.14-.91-.15c.08-.43,1.15.06,1.21,0v-2.42c-.23-.03-.21.58-.21.74-.01.45.12.92.06,1.38-.82.03-1.47.04-1.21-.96.04-.17.31-.03.31-.17.02-.14-.22-.03-.27-.1ZM122.69,122.64l-.12.36.46.15.12-.36-.46-.15ZM114.55,128.11c-.31-.07-.35.15-.48.35-.31.46-.66,1.24-.88,1.77l1.36-2.11ZM115.46,128.57h-.3s-.15.6-.15.6l.45-.6ZM114.74,129.41l-.59,1.06.2.11.59-1.06-.2-.11ZM123.87,130.97c0-.51-.41-.92-.92-.92s-.92.41-.92.92.41.92.92.92.92-.41.92-.92Z"/>
    <circle cx="86.27" cy="74.98" r="7.15"/>
    <path d="M59.99,64.03c.14-1.07,1-1.39,1.17-2.53.52-3.49.72-11.17,2.76-13.86,3.05-4.03,9.04-.59,7.56,3.94-1.18,3.61-6.19,6.8-8.93,9.36-.34.32-1.05.95-1.29,1.28-.44.61-.39,1.84-1.28,1.82Z"/>
    <rect x="113.34" y="142.16" width="19.5" height=".77" transform="translate(-19.5 265.59) rotate(-89.98)"/>
    <path d="M108.81,44.68c-2.12.04-2.81,1.25-3.1,3.18-.27-1.88-1-3.18-3.1-3.18.32-.45,1.05-.38,1.57-.62,1.08-.5,1.24-1.67,1.53-2.71.45,1.01.36,2.05,1.45,2.63.54.29,1.29.24,1.65.69Z"/>
    <path d="M96.71,50.88l-1.77.57c-1.09.57-1.13,1.72-1.48,2.75-.19-2.05-1.08-2.95-3.1-3.25,2.04-.42,2.86-1.12,3.1-3.25.47,1.95,1.08,3.02,3.25,3.18Z"/>
    <path d="M90.67,58.29c-.07.31-.68.29-.87.49-.15.16-.17.5-.19.72-.49.12-.25-.46-.49-.72-.13-.14-.65-.27-.87-.34.09-.28.45-.09.77-.36.27-.22.26-.62.51-.85.17.66.38,1.06,1.13,1.06Z"/>
    <path d="M100.22,51.3c.2.2.7.04.72.33-.21.03-.58.04-.72.19-.2.2-.04.7-.33.72-.03-.21-.04-.58-.19-.72-.2-.2-.7-.04-.72-.33.68,0,.9-.23.91-.91.3.02.14.52.33.72Z"/>
    <path d="M123.46,152.45l-.15.91h-.44s-.16-.91-.16-.91c.29.15.46.15.75,0Z"/>
    <path d="M83.26,52.55l-.46.6c-.32-.2-.25-.57-.75-.45l.68-.6.53.46Z"/>
    <rect x="90.29" y="88.26" width="1.81" height=".22" transform="translate(-35.77 90.63) rotate(-45.12)"/>
    <rect x="91.8" y="86.9" width="1.81" height=".22" transform="translate(-34.36 91.3) rotate(-45.12)"/>
    <rect x="88.78" y="89.62" width="1.81" height=".22" transform="translate(-37.18 89.96) rotate(-45.12)"/>
    <rect x="87.27" y="90.98" width="1.81" height=".22" transform="translate(-38.58 89.28) rotate(-45.12)"/>
    <rect x="85.76" y="92.34" width="1.81" height=".22" transform="translate(-39.99 88.61) rotate(-45.12)"/>
    <path d="M129.36,49.67h-.74s-.16-.6-.16-.6c.15-.12.87.36.91.6Z"/>
    <rect x="130.27" y="51.49" width=".15" height="1.36" transform="translate(78.13 182.49) rotate(-89.98)"/>
    <polygon points="126.79 48.01 126.79 48.92 126.64 48.92 126.49 48.01 126.79 48.01"/>
    <path d="M123.47,126.15v3.48h-1.06c-.02-.58.03-1.16,0-1.74-.07-1.26-.73-1.77,1.06-1.74Z"/>
    <circle cx="122.94" cy="130.99" r=".66"/>
  </g>
</svg>
